<?xml version="1.0" encoding="UTF-8"?>
<!--
  MIL-STD-2525D civilian / emergency-management sprite atlas.
  Use with <svg><use href="/symbology/2525d.svg#amb" /></svg>.
  Each symbol uses viewBox 0 0 40 30, amber #FFB000 stroke, 1.6 px stroke-width.
  Frame: square at (2,2,36,26). Glyph fills the center.
  Source: bundled from claude_akom_design/assets/milstd/*.svg (May 2 prototype).
-->
<svg xmlns="http://www.w3.org/2000/svg" style="display:none">
  <symbol id="amb" viewBox="0 0 40 30">
    <g fill="none" stroke="currentColor" stroke-width="1.6" stroke-linecap="square" stroke-linejoin="miter">
      <rect x="2" y="2" width="36" height="26"/>
      <path d="M14 15 H26 M20 9 V21" stroke-width="2.4"/>
    </g>
  </symbol>
  <symbol id="fire" viewBox="0 0 40 30">
    <g fill="none" stroke="currentColor" stroke-width="1.6" stroke-linecap="square" stroke-linejoin="miter">
      <rect x="2" y="2" width="36" height="26"/>
      <path d="M15 21 C15 16, 17 15, 18 12 C18 16, 21 17, 21 13 C22 16, 25 17, 25 21 Z" fill="currentColor" stroke="none"/>
    </g>
  </symbol>
  <symbol id="hems" viewBox="0 0 40 30">
    <g fill="none" stroke="currentColor" stroke-width="1.6" stroke-linecap="square" stroke-linejoin="miter">
      <rect x="2" y="2" width="36" height="26"/>
      <circle cx="20" cy="15" r="3.5"/>
      <path d="M20 6 V11.5 M20 18.5 V24 M11 15 H16.5 M23.5 15 H29"/>
    </g>
  </symbol>
  <symbol id="k9" viewBox="0 0 40 30">
    <g fill="none" stroke="currentColor" stroke-width="1.6" stroke-linecap="square" stroke-linejoin="miter">
      <rect x="2" y="2" width="36" height="26"/>
      <path d="M13 21 L13 14 L15 11 L18 11 L19 13 L24 13 L25 15 L28 16 L28 21 Z"/>
      <circle cx="16" cy="22" r="1.4" fill="currentColor" stroke="none"/>
      <circle cx="25" cy="22" r="1.4" fill="currentColor" stroke="none"/>
      <path d="M14.5 11.5 L13.5 9 L15 9"/>
    </g>
  </symbol>
  <symbol id="pol" viewBox="0 0 40 30">
    <g fill="none" stroke="currentColor" stroke-width="1.6" stroke-linecap="square" stroke-linejoin="miter">
      <rect x="2" y="2" width="36" height="26"/>
      <circle cx="20" cy="13" r="2.6"/>
      <path d="M14 23 C14 18, 17 17, 20 17 C23 17, 26 18, 26 23"/>
    </g>
  </symbol>
  <symbol id="sar" viewBox="0 0 40 30">
    <g fill="none" stroke="currentColor" stroke-width="1.6" stroke-linecap="square" stroke-linejoin="miter">
      <rect x="2" y="2" width="36" height="26"/>
      <circle cx="17" cy="14" r="4.5"/>
      <path d="M20.2 17.2 L25 22"/>
    </g>
  </symbol>
  <symbol id="uav" viewBox="0 0 40 30">
    <g fill="none" stroke="currentColor" stroke-width="1.6" stroke-linecap="square" stroke-linejoin="miter">
      <rect x="2" y="2" width="36" height="26"/>
      <circle cx="20" cy="15" r="2"/>
      <circle cx="13" cy="9" r="2.2"/>
      <circle cx="27" cy="9" r="2.2"/>
      <circle cx="13" cy="21" r="2.2"/>
      <circle cx="27" cy="21" r="2.2"/>
      <path d="M14.5 10.5 L18.5 13.5 M25.5 10.5 L21.5 13.5 M14.5 19.5 L18.5 16.5 M25.5 19.5 L21.5 16.5"/>
    </g>
  </symbol>
  <symbol id="flight" viewBox="0 0 40 30">
    <g fill="none" stroke="currentColor" stroke-width="1.6" stroke-linecap="square" stroke-linejoin="miter">
      <rect x="2" y="2" width="36" height="26"/>
      <path d="M20 7 L23 18 L31 22 L24 22 L21 25 L19 25 L16 22 L9 22 L17 18 Z" fill="currentColor" stroke="none"/>
    </g>
  </symbol>
  <symbol id="vessel" viewBox="0 0 40 30">
    <g fill="none" stroke="currentColor" stroke-width="1.6" stroke-linecap="square" stroke-linejoin="miter">
      <rect x="2" y="2" width="36" height="26"/>
      <path d="M10 19 L30 19 L27 23 L13 23 Z M14 19 L14 13 L26 13 L26 19 M20 13 V8"/>
    </g>
  </symbol>
  <symbol id="satellite" viewBox="0 0 40 30">
    <g fill="none" stroke="currentColor" stroke-width="1.6" stroke-linecap="square" stroke-linejoin="miter">
      <rect x="2" y="2" width="36" height="26"/>
      <rect x="17" y="12" width="6" height="6"/>
      <path d="M9 7 L17 13 M31 23 L23 17 M9 23 L17 17 M31 7 L23 13"/>
    </g>
  </symbol>
  <symbol id="beacon" viewBox="0 0 40 30">
    <g fill="none" stroke="currentColor" stroke-width="1.6" stroke-linecap="square" stroke-linejoin="miter">
      <rect x="2" y="2" width="36" height="26"/>
      <circle cx="20" cy="15" r="2"/>
      <circle cx="20" cy="15" r="6"/>
      <circle cx="20" cy="15" r="10"/>
    </g>
  </symbol>
  <symbol id="blockage" viewBox="0 0 40 30">
    <g fill="none" stroke="currentColor" stroke-width="1.6" stroke-linecap="square" stroke-linejoin="miter">
      <rect x="2" y="2" width="36" height="26"/>
      <path d="M10 22 L30 8 M10 8 L30 22"/>
    </g>
  </symbol>
</svg>
